<svg xmlns="http://www.w3.org/2000/svg" width="1005.014" height="382.95" viewBox="0 0 1005.014 382.95">
  <g id="Layer_1" data-name="Layer 1" transform="translate(-9.497 -298.86)">
    <path id="Path_62" data-name="Path 62" d="M1013.93,451.31l-.21-2.34-1.4-1.89a8.49,8.49,0,0,0-6.81-3.43,9.37,9.37,0,0,0-1.53.13,42.262,42.262,0,0,0,2.27-13.06c0-7.9-2.82-14.56-8.17-19.25l-25.75-22.4,1.33,2.81-9.28-7.55V401.7l10.45,2.51h-2a80.54,80.54,0,0,0-34.76,8.85l-.65.35a225.623,225.623,0,0,0,11.23-22.55c5.07-12,8.13-22.83,9.08-32.34.9-9.06-.09-16.83-3-23.08a24.77,24.77,0,0,0-9.89-11.25h0L921,303l.91,2.66-7.31-5.89,5.17,24.35a55.74,55.74,0,0,0-11.2,6c-6.77,4.61-13.58,11.12-20.24,19.36-8.72,10.78-17.42,24.75-25.93,41.65a33.862,33.862,0,0,0,1.3-7.62,19.129,19.129,0,0,0-5-14.35,20,20,0,0,0-2.35-2.05L831.6,345.5l-.66,12.84a19.269,19.269,0,0,0-3.64-7.05,17.443,17.443,0,0,0-2.17-2.13h0L801.51,328.9l-.34,17.54a70.65,70.65,0,0,0-21.34,8.26,79.5,79.5,0,0,0-19.78,16.68,87.38,87.38,0,0,0-14.46,23l-.05.12v.11l-16,45.06a9.189,9.189,0,0,0-3-1.51,12.724,12.724,0,0,0-2-.38,29.34,29.34,0,0,0-3.19-.16,69.78,69.78,0,0,0-22.76,4.18,44.1,44.1,0,0,0-12.94,7.28,29.16,29.16,0,0,0-9.32,13.58c-5.22,16.35-17,47.86-20.07,56-1.78,1.54-4.92,4.2-8.41,6.84-.87.65-1.67,1.25-2.42,1.78,2.64-7,5.52-14.61,8.32-22h0c4.56-12,8.86-23.31,12.11-32.09,1.76-4.75,3-8.33,3.95-11,1.55-4.48,1.92-6,1.92-7.61a8.65,8.65,0,0,0-3-6.56l-24.83-21.5-22.17,29-1.38-.81a30.356,30.356,0,0,0-6.84-2.71A65.141,65.141,0,0,0,596,449.81c-12,0-25.63,2.51-40.45,7.45a87.69,87.69,0,0,0-29.2,16.87A121.311,121.311,0,0,0,506.5,496c-2.87,4-5.32,7.9-7.36,11.42a91.7,91.7,0,0,0,4.78-14.35c.82-3.7,1.61-9.13-1-13.55a11,11,0,0,0-4.3-4.16L472.9,453l-.74,1.84L454,439.28l-14,9.39,2.32,11.66a49.1,49.1,0,0,0-8.67,7.22,51.4,51.4,0,0,0-8.59,12.1,41.988,41.988,0,0,0-2.08,4.84,28.93,28.93,0,0,0-6.7-4.74,40.271,40.271,0,0,0-18.88-4.27c-11.19,0-24,3.61-38.16,10.74a76,76,0,0,0-22.42,17.87,123.172,123.172,0,0,0-15,21.43,159.1,159.1,0,0,0-10.93,24.1,177.991,177.991,0,0,1-14.15,13.79c1.76-10.74,4.66-24.13,8.7-40.07,6-23.71,13.42-48.83,18.84-67.17l.51-1.72a324.933,324.933,0,0,1,11.75-32.94c2.31-5.68,4-9.78,4.78-13.38a18,18,0,0,0,.3-7,13.16,13.16,0,0,0-3.74-7.2l-.29-.28-.3-.25-.22-.17L311.58,371l-18,32.78c-6.39,4.34-12.22,9-15.11,12.27-2.44,2.73-5.92,9.09-14.26,24.51h0c-4.37,8.08-9.81,18.14-15.77,28.74-3.57,6.35-7.35,12.95-11,19.34,2-11.3,3.91-21.71,4.88-27.16.85-4.69,2.38-10.67,4-17,1.83-7.15,3.72-14.54,4.74-20.65a47,47,0,0,0,.78-9.06,18,18,0,0,0-.75-4.73,11.43,11.43,0,0,0-3.59-5.55l-25.76-22.4L189.3,420.9l17-4.79a82.087,82.087,0,0,0-6.64,5c-4.7,3.91-8,7.6-10.07,11.27-1.52,2.7-6.08,11-12.39,22.46h0c-12.42,22.59-31.2,56.74-47.91,86.59-9.18,16.4-16.67,29.59-22.25,39.2C98.13,596,95.93,599,95.47,599.54c-7.3,8.75-28,19.83-40.4,26.44l-1.7.91c-1.35.73-2.6,1.49-3.79,2.26h0l-.09.07a39,39,0,0,0-4.82,3.7L15.52,655.28l25.76,22.41a12.77,12.77,0,0,0,9.33,4.12h0a13.667,13.667,0,0,0,4.54-.8l.18-.06.18-.07a145.091,145.091,0,0,0,36.61-21.1,164.809,164.809,0,0,0,28.51-29.53c16.55-21.61,30.49-48,47.91-81.35q-3,18.48-4.56,32.49l-21.91,25.35,25.76,22.4a14,14,0,0,0,11.35,5.2h1.36c2.93-.09,5.73-1.38,8.58-4a50.678,50.678,0,0,0,5.9-6.68c4-5.19,9.26-13.13,16.63-25,8.06-13,18.42-30.28,32-53.29-2.67,10.16-4.72,19.3-6.14,27.3q-1,5.73-1.61,10.73l-14.34,20.33L241.39,621a20.539,20.539,0,0,0,5.91,5.14,22.79,22.79,0,0,0,9.53,2.84c.56,0,1.14.06,1.72.06,5.84,0,12.75-2.32,21.13-7.09a165.21,165.21,0,0,0,20.1-13.9c4.45-3.51,8.61-7,12.12-10.13a29.459,29.459,0,0,0,3.6,5.16,32.46,32.46,0,0,0,12.77,8.81,51,51,0,0,0,16.47,3.26h1.61a48.8,48.8,0,0,0,16.78-3.37,102.667,102.667,0,0,0,18.29-9.24,222.37,222.37,0,0,0,26-19.34l17,14.78a20.82,20.82,0,0,0,6.79,4.08,29.12,29.12,0,0,0,7.76,1.63h1.13c3.16,0,6.9-1.06,11.43-3.25A93.32,93.32,0,0,0,464,593.08a194.866,194.866,0,0,0,18.51-14.81,27.12,27.12,0,0,0,5.39,8.86,25.56,25.56,0,0,0,17.23,8.17c-6.33,4.67-12.19,9.25-16.76,14.37a40.86,40.86,0,0,0-7.23,11c-.26.6-.46,1.22-.69,1.84l-22.32,4.77,25.75,22.4a25.2,25.2,0,0,0,10.7,7.48,38.342,38.342,0,0,0,13.46,2.2h.32a60.079,60.079,0,0,0,20.36-4.4,69.507,69.507,0,0,0,18.42-11.24c8.82-7.38,16.9-17.34,24-29.61l20.72,18a23.909,23.909,0,0,0,8.56,5.5,28.361,28.361,0,0,0,10.08,1.76,35.266,35.266,0,0,0,4.42-.29,75.1,75.1,0,0,0,37.75-16.29,103.829,103.829,0,0,0,19.17-20.41l7.75,6.91a6.1,6.1,0,0,0,.46.41h0a10.05,10.05,0,0,0,5.14,2.22,25.61,25.61,0,0,0,3.72.22A149.314,149.314,0,0,0,706,610.73c3-.39,5.74-.81,7.92-1.21,3.47-.64,5.21-1.17,6.65-2,2.77-1.6,3.93-4.19,5.06-7.16.67-1.77,1.48-4.15,2.47-7.26,1.62-5.07,3.7-12.06,6.2-20.78,2.69-9.41,5.36-19.09,7.2-25.84.56,0,1.12.08,1.7.08a22.21,22.21,0,0,0,5.25-.73L760.12,556a19.41,19.41,0,0,0,15.07,7.17,30.24,30.24,0,0,0,11.87-2.65,66.5,66.5,0,0,0,12.13-7,181.262,181.262,0,0,0,16.74-13.74l10.7,9.31a16.78,16.78,0,0,0,12.7,5.55,20.074,20.074,0,0,0,2.54-.17c6.31-.78,13.22-3.23,20.55-7.26a121,121,0,0,0,17.36-11.83c2.59-2.08,5-4.14,7.11-6l4.17,3.58a33.669,33.669,0,0,0,8.73,7.5,35.72,35.72,0,0,0,18.45,4.78,30.609,30.609,0,0,0,3.3-.12c10.44-.75,21.79-4.56,33.75-11.34A175.694,175.694,0,0,0,983.89,513a259.29,259.29,0,0,0,28.21-28.93l1.6-2,.23-2.52a171.756,171.756,0,0,0,0-28.24ZM596.35,586.48a49,49,0,0,0-7.62,9.33L577,603a197.125,197.125,0,0,0,7.89-18.79c1.68-4.69,2.84-8.49,3.5-10.82l3.51-3.21a23.759,23.759,0,0,0,4.5,6.13,21,21,0,0,0,6.54,4.32C600.4,582.71,598.23,584.64,596.35,586.48Z" fill="#72a276"/>
    <g id="Subtraction_1" data-name="Subtraction 1">
      <path id="Path_63" data-name="Path 63" d="M24.85,655.21h0a8.51,8.51,0,0,1-6.28-2.81c-2-2.11-3.41-5.35-4.21-9.63a41.11,41.11,0,0,1-.63-9.42v-.64c.37-7,.88-16.53,15.82-24.52l1.7-.91c13.47-7.2,33.82-18.08,41.65-27.46,1.93-2.32,9.45-14.4,34.25-58.72,16.72-29.86,35.5-64,47.93-86.62h0C161.45,423,166,414.7,167.52,412c1.79-3.18,4.85-6.58,9.1-10.11a96.687,96.687,0,0,1,12.78-8.85c7.7-4.5,18.17-9.31,24.44-9.31a7.74,7.74,0,0,1,5.11,1.61c1.78,1.49,2.7,3.84,2.83,7.2a42.46,42.46,0,0,1-.73,8.22c-1,5.93-2.85,13.24-4.66,20.3-1.64,6.41-3.19,12.46-4.06,17.31-1.65,9.19-5.86,32.52-9.09,50.44,6.75-11.44,15.37-26.19,23-39.82,6-10.63,11.43-20.71,15.81-28.81h0c7.76-14.34,11.58-21.34,13.7-23.7,2.86-3.2,10.34-9.28,19.13-14.73a94.752,94.752,0,0,1,13.15-6.93c5-2.09,9.28-3.14,12.81-3.14a12.22,12.22,0,0,1,8,2.59l.15.12.14.14c3.75,3.76,2.67,8.68,2.31,10.3-.72,3.25-2.33,7.21-4.56,12.7a328.106,328.106,0,0,0-11.89,33.34l-.51,1.71c-9.93,33.61-25.92,87.73-29.15,118.55A187.748,187.748,0,0,0,288.8,529.4a154.422,154.422,0,0,1,10.9-24.23,119.4,119.4,0,0,1,14.45-20.7,71.819,71.819,0,0,1,21.17-16.9c13.53-6.83,25.73-10.29,36.26-10.29a36.17,36.17,0,0,1,16.94,3.79,22,22,0,0,1,8.22,6.94c3.1,4.6,4.39,10.23,3.83,16.73A47.73,47.73,0,0,1,395,502.65a64.665,64.665,0,0,1-6.48,9.83c10.11-10.52,18.81-20.37,23.59-25.89-.89-.41-1.82-.89-2.75-1.43a21.929,21.929,0,0,1-6.46-5.53,14.52,14.52,0,0,1-3.06-9.45,27.83,27.83,0,0,1,3.24-11.05A46.93,46.93,0,0,1,410.94,448c7.8-8.2,17.45-12.71,27.18-12.71,7.41,0,10.68,3.22,12.12,5.93a13.94,13.94,0,0,1,1.08,8.93,34.759,34.759,0,0,1-2.52,8l-.15.33c6.4-1.29,14.25-2.66,18.84-2.66a6.83,6.83,0,0,1,6.08,3.39c1.39,2.39,1.55,5.74.49,10.53a92.652,92.652,0,0,1-5,14.75c-3.62,8.69-9,19.73-16.11,33,12.73-11.11,15.93-14.7,16.6-15.52a139,139,0,0,1,14.62-25.94,117.219,117.219,0,0,1,19.12-21.16,83.648,83.648,0,0,1,27.8-16.08c14.39-4.79,27.55-7.22,39.12-7.22a60.421,60.421,0,0,1,16.41,2,25.88,25.88,0,0,1,5.85,2.28l2.93,1.72-1.07,3.22-16.4,49.51c2.06-5.41,5.12-13.33,8.36-21.44,3.32-8.3,6.15-15.08,8.42-20.17,4.24-9.49,5.72-11.31,6.77-12.27,2.29-2.08,7.77-4.18,16.28-6.25,7.08-1.72,14-2.83,17.67-2.83a10.412,10.412,0,0,1,2.73.3,4.66,4.66,0,0,1,3.62,4.49c0,1,0,1.94-5.62,17.11-3.24,8.76-7.54,20.08-12.09,32.06h0c-3.42,9-7,18.34-10,26.59a27.677,27.677,0,0,0-1.68,5.94c2-.68,6-2.73,12.28-7.48,4.18-3.17,7.89-6.37,9.43-7.72,2.32-6.14,15-40,20.52-57.17a24.93,24.93,0,0,1,8-11.63,39.772,39.772,0,0,1,11.7-6.57,66.4,66.4,0,0,1,21.3-3.92,25.172,25.172,0,0,1,2.69.13,5.17,5.17,0,0,1,4.09,2.34,5.23,5.23,0,0,1,.21,4.28c-.19.64-.47,1.5-.86,2.62-.68,2-1.71,4.79-3.07,8.39-2.27,6-5.49,14.31-9.56,24.66-2.79,7.09-5.6,14.16-8,20.14l5.92-5.06,36.71-103.3v-.11a64.825,64.825,0,0,1,3.38-6.95,89.582,89.582,0,0,1,10.35-14.87,75.311,75.311,0,0,1,18.73-15.81,66.72,66.72,0,0,1,28.19-9c.82-.08,1.62-.12,2.39-.12,5,0,8.87,1.61,11.51,4.78,2.44,2.93,3.7,7.06,3.86,12.62,0,1.47,0,3.08-.11,4.82.53-.33,1.07-.65,1.62-.94a27.86,27.86,0,0,1,13.11-3.46c5.36,0,10,1.79,13.09,5a14.7,14.7,0,0,1,3.87,11.24,31.47,31.47,0,0,1-11.07,21.92,36.141,36.141,0,0,1-9.62,6.1,26.62,26.62,0,0,1-10.2,2.25,17.2,17.2,0,0,1-8.39-2,14.772,14.772,0,0,1-3.13-2.3c-2.16,4.53-5.31,10.77-9.44,18q-2,3.45-4,6.85c5.63-2.38,12.66-3.53,21.49-3.53,1.17,0,2.4,0,3.65.06l5.72.19-1.91,5.4c-6.16,17.48-11.74,31.5-16.23,42.78-4,10.16-7.41,18.62-9.9,26.29,12.89-12.43,22.85-22.12,25.85-25,.84-2.9,3.35-11.31,7.21-22.6a559.293,559.293,0,0,1,20.69-52.26c10.27-22.29,20.83-40.22,31.4-53.29,6.41-7.92,12.91-14.15,19.34-18.53,7.34-5,14.79-7.73,22.13-8.11h.79a17.73,17.73,0,0,1,10.21,3.2,20.92,20.92,0,0,1,6.94,8.58c2.55,5.57,3.42,12.61,2.59,20.92-.9,9.08-3.85,19.55-8.76,31.11a259.915,259.915,0,0,1-21.44,39.25,79,79,0,0,1,16.65-11.68,76.389,76.389,0,0,1,33-8.38h1.88c8.87,0,15.75,2.1,20.45,6.22a19,19,0,0,1,5.09,7.13,23.611,23.611,0,0,1,1.65,9c0,5.51-1.63,11.85-4.7,18.33a75,75,0,0,1-12.37,18.14,69.9,69.9,0,0,1-17.05,13.77c-6.77,3.79-13.46,5.71-19.88,5.71a34,34,0,0,1-15.77-3.41c-.22,1.92-.43,4.09-.58,6.34a66.3,66.3,0,0,0,0,10.43c.42,4.19,1.32,5.8,1.69,6.3a1.15,1.15,0,0,0,.31.32c.91,0,4.66-1,11.9-5.18a128.7,128.7,0,0,0,20.37-14.78c11.14-9.88,21.79-21.77,28.85-29.63,2.09-2.34,3.9-4.35,5.22-5.76.76-.81,1.34-1.38,1.8-1.8a5.369,5.369,0,0,1,3.63-1.66,4.31,4.31,0,0,1,3.44,1.73l.7.95.11,1.17a172.3,172.3,0,0,1,0,27.47l-.12,1.27-.8,1a254.991,254.991,0,0,1-27.71,28.41,172.22,172.22,0,0,1-27.91,20.27c-11.4,6.46-22.16,10.1-32,10.8-1,.07-2,.11-3,.11a31.489,31.489,0,0,1-16.31-4.2,29.909,29.909,0,0,1-9.62-9.21,37,37,0,0,1-3.25-6c-3,2.89-7.1,6.67-11.9,10.53a118.161,118.161,0,0,1-16.76,11.42c-6.86,3.77-13.27,6.05-19,6.78a17.4,17.4,0,0,1-2,.13,12.66,12.66,0,0,1-9.6-4.19c-2.94-3.22-4.71-8-5.42-14.73-.17-1.63-.27-3.36-.32-5.19C787.32,514.7,778.37,522.51,771,527.7c-8.59,6-15.45,8.88-21.57,8.88a14.929,14.929,0,0,1-6.55-1.48,15.76,15.76,0,0,1-5.31-4.19,24,24,0,0,1-4.88-11.29,35.617,35.617,0,0,1-.47-4.61,46.129,46.129,0,0,1-4.47,2.23A28.379,28.379,0,0,1,717.41,520a15.751,15.751,0,0,1-4.71-.78c-1.77,6.5-5,18.24-8.22,29.58-2.49,8.68-4.56,15.63-6.16,20.66-1,3-1.76,5.37-2.4,7-1.06,2.79-1.78,4.18-3.24,5-.82.47-2,.88-5.31,1.5-2.1.39-4.77.79-7.7,1.17a144.9,144.9,0,0,1-16.53,1.36,21.426,21.426,0,0,1-3.1-.18,5.35,5.35,0,0,1-4-2.45c-1-1.67-.63-3.4,0-6.32.42-1.84,1.1-4.44,2-7.71,1.5-5.46,3.67-12.94,6.45-22.22,1.76-5.85,3.54-11.71,5.09-16.78l-6.24,5.93c-.53,1.75-1.68,5.36-3.52,10a152.467,152.467,0,0,1-12.49,24.83,105.061,105.061,0,0,1-23,26.45,71.07,71.07,0,0,1-35.67,15.41,32.4,32.4,0,0,1-3.89.25c-6.32,0-11.74-2.09-15.67-6-4.17-4.19-6.36-10.16-6.34-17.29a25.679,25.679,0,0,1,2.19-10.74,39.159,39.159,0,0,1,8.62-11.62,127.63,127.63,0,0,1,13.84-11.41c-.58.05-1.15.07-1.69.07a15.228,15.228,0,0,1-1.53-.07,17,17,0,0,1-10.58-4.76,21.13,21.13,0,0,1-5.07-8.23c-.25-.72-.47-1.44-.66-2.14l-8.92,8.17c-.55,2-1.77,6.2-3.74,11.69a181.643,181.643,0,0,1-13,28.41c-7,12.2-14.91,22-23.53,29.25-11,9.23-23.24,14.17-36.26,14.67h-.16a34,34,0,0,1-12-1.94,20.88,20.88,0,0,1-8.94-6.22,19.84,19.84,0,0,1-3.9-7.63,20.251,20.251,0,0,1-.69-5.05,29.33,29.33,0,0,1,2.46-12,36.519,36.519,0,0,1,6.51-9.85c5.19-5.81,12.36-11,19.94-16.6,3.29-2.4,6.71-4.9,10.17-7.58a41,41,0,0,1-14.5,2.89,21.68,21.68,0,0,1-16.11-6.88,23.889,23.889,0,0,1-5.33-9.86,32.259,32.259,0,0,1-.85-4,198.005,198.005,0,0,1-23.21,19.21,90.5,90.5,0,0,1-11.91,7.14c-4,1.91-7.09,2.83-9.61,2.83h-.79c-5.15-.42-9.1-1.93-12.07-4.63-3.83-3.49-5.72-8.77-5.62-15.7.05-3.44,1.2-8.07,3.51-14.15q1.14-3,2.62-6.37c-4.73,4.73-10.05,9.84-15.7,14.93-11.87,10.7-22.91,19.24-32.8,25.39a98.633,98.633,0,0,1-17.53,8.87,44.821,44.821,0,0,1-15.33,3.11h-1.41c-11.76-.55-20.6-4.13-26.27-10.64a25.829,25.829,0,0,1-5.2-9.44c-4.1,3.73-9.88,8.81-16.29,13.87a162.52,162.52,0,0,1-19.57,13.55c-7.73,4.4-14,6.54-19.06,6.54a12.368,12.368,0,0,1-1.37-.05c-5.95-.49-10.5-3.12-13.55-7.84-2.71-4.19-4.15-9.89-4.41-17.43-.25-7,.54-15.59,2.4-26.11a406.5,406.5,0,0,1,9.9-40.79q2.55-8.78,5.67-18.58c-22.4,38.21-38,64.49-49.1,82.41-7.29,11.72-12.5,19.55-16.39,24.63-4.89,6.39-8.06,8.91-11.29,9h-1.24a9.9,9.9,0,0,1-8.09-3.65c-4-4.91-5.24-15.07-4-32.92,1.16-16.77,4.63-40.44,10.33-70.6-3.94,7.45-7.71,14.66-11.42,21.76h0c-17.87,34.17-32,61.15-48.68,83a161.24,161.24,0,0,1-27.78,28.79A141,141,0,0,1,28.19,654.6h-.18a9.48,9.48,0,0,1-3.16.61Zm477.62-60.48a71.712,71.712,0,0,0-5.75,6.32,33.312,33.312,0,0,0-3.55,5.25q.31-.25.66-.57a45.332,45.332,0,0,0,6.24-7.35q1.24-1.78,2.4-3.65Zm106.37-19.47a71.262,71.262,0,0,0-6.11,5.62,35.311,35.311,0,0,0-3.16,3.76,37.79,37.79,0,0,0,7.52-7.19c.59-.71,1.18-1.45,1.75-2.19Zm-277-45.68c-.45,2.28-.92,5-1.28,7.82a62.872,62.872,0,0,0-.59,11.09c.25,4.42,1.22,6.12,1.63,6.65a1.32,1.32,0,0,0,1.23.59h.22c1.47-.09,4.12-.67,8.36-2.9a90.618,90.618,0,0,0,12.93-8.62,281.844,281.844,0,0,0,24.23-21.68c-.81.66-1.63,1.3-2.47,1.91-8.63,6.33-18,9.68-27.18,9.68a33,33,0,0,1-17-4.5Zm213.3-69.48a28.013,28.013,0,0,0-3.48,1.24,38.06,38.06,0,0,0-9,5.68,66.259,66.259,0,0,0-14.49,17.49c-3.43,5.9-6.91,15.81-9.1,25.85a79.75,79.75,0,0,0-1.91,13.16,22.468,22.468,0,0,0,.2,4.8c1.69-.71,5.32-2.79,11.89-8.8,4.31-3.94,8-7.88,9.45-9.39,1.14-3.37,5.81-17.21,16.48-50.03ZM344.07,502.49l.62.63a9.45,9.45,0,0,0,6.62,2.61h.25c.8,0,3.12-1.2,6.3-5.44a45.16,45.16,0,0,0,6.38-12.16,18.762,18.762,0,0,0,.65-2.45A23.86,23.86,0,0,0,356.5,490a60.4,60.4,0,0,0-12.43,12.49Zm409-55.9q-5.47,6.6-11.22,12.67c-7.75,8.19-13.23,15-16.3,20.13a18.131,18.131,0,0,0-2.44,5.47,15.37,15.37,0,0,0,7.7-3.39c7.11-5.82,13-11.45,15-13.39,1-3,3.76-11.67,7-20.67a3.9,3.9,0,0,1,.19-.82Zm100.05,17.92a119.2,119.2,0,0,0-7,15.7l.15-.13a170.782,170.782,0,0,0,17.72-17.17,176.988,176.988,0,0,1,8.17-20.85l.75-1.59q-9.24,11.71-19.84,24.04ZM919.74,432q.28.3.63.63a9.42,9.42,0,0,0,6.61,2.61h.23c.79,0,3.13-1.18,6.32-5.44a45.159,45.159,0,0,0,6.38-12.16,19.171,19.171,0,0,0,.65-2.45c-1.81.37-4.74,1.63-8.39,4.29A60.389,60.389,0,0,0,919.74,432ZM766.81,363.94a118.491,118.491,0,0,0-8.55,16.29c-3.17,7-6.57,15.44-9.91,24.49a167.71,167.71,0,0,0,10.77-19.8A134.328,134.328,0,0,0,766,367.1C766.32,365.91,766.59,364.86,766.81,363.94Zm128.63-22.17c-2.06,3.17-5.06,8.64-9.12,18-3.42,7.94-7.1,17.51-10.69,27.8a182.876,182.876,0,0,0,11.78-22.52,142.62,142.62,0,0,0,7.17-19.7A34.769,34.769,0,0,0,895.44,341.77Z" fill="#fff"/>
      <path id="Path_64" data-name="Path 64" d="M24.85,651a5.481,5.481,0,0,0,1.77-.32A136.771,136.771,0,0,0,61.15,630.8a157,157,0,0,0,27.06-28c16.47-21.52,30.51-48.36,48.29-82.35,7.66-14.65,15.59-29.8,24.71-46.48-8.94,43.34-14.23,76.16-15.7,97.54-1.12,16.26-.12,26.06,3.07,30a5.7,5.7,0,0,0,4.84,2.1h1.11c3.33-.1,10.13-9,24.24-31.66C193,549,214.58,512.18,248.59,454.05c-7.68,21.57-14,40.87-18.8,57.37A398.259,398.259,0,0,0,220,551.77c-3.59,20.26-3.13,33.52,1.4,40.54,2.33,3.61,5.72,5.55,10.36,5.93h1c4.29,0,10-2,17-6a157.006,157.006,0,0,0,19-13.19c11-8.7,20.17-17.47,21.89-19.14h.05a20.308,20.308,0,0,0,.38,5,22,22,0,0,0,4.93,10.25c4.9,5.61,12.73,8.71,23.3,9.21h1.22c8.24,0,18.55-3.82,30.64-11.35,9.68-6,20.52-14.41,32.22-25a461.445,461.445,0,0,0,35.73-36.24v-.05c-.2.34-4.86,8.35-9.53,17.84-4.36,8.85-9.58,20.76-9.67,27.23-.09,5.66,1.34,9.88,4.25,12.53,2.25,2,5.39,3.21,9.58,3.55h.45c3.71,0,10.68-3.37,19.12-9.23A207,207,0,0,0,463,538.21a36.1,36.1,0,0,0,.93,12.69,19.871,19.871,0,0,0,4.37,8.15,17.56,17.56,0,0,0,13,5.52c5,0,10.16-1.26,16.34-4,7-3.1,15.47-8.16,25.73-15.47-11.22,14.14-24,23.48-35.26,31.72-15.19,11.11-27.2,19.89-27.2,35a16.19,16.19,0,0,0,3.63,10c3.65,4.41,9.6,6.64,17.69,6.64,12.07-.47,23.42-5.08,33.72-13.69,8.25-6.9,15.85-16.36,22.59-28.13A178.189,178.189,0,0,0,551.23,559c2.56-7.13,3.82-12,3.95-12.54L570.89,532a29.34,29.34,0,0,0,1.57,9.23,16.91,16.91,0,0,0,4,6.62,12.89,12.89,0,0,0,8,3.59,10.413,10.413,0,0,0,1.13.06c3.32,0,7.77-1.23,13.22-3.64a129.574,129.574,0,0,0,14.87-8c8.5-5.21,15.74-10.56,17.1-11.58h.06c-.06.11-3,5.5-12.53,11.59-22.54,14.35-34.69,23.09-41.92,30.18-7.9,7.74-9.53,13.35-9.55,19.38s1.75,10.93,5.11,14.31c3.13,3.14,7.52,4.79,12.7,4.79a26.11,26.11,0,0,0,3.37-.22,66.86,66.86,0,0,0,33.58-14.52,101.192,101.192,0,0,0,22.1-25.4,149.657,149.657,0,0,0,12.14-24.14c2.47-6.27,3.65-10.56,3.7-10.74l18.7-17.76c-.19.63-19.73,63.24-18.7,65,.21.35,1.39.52,3.52.52,8,0,25.53-2.36,27.44-3.47,2.3-1.32,17.57-57.89,19.3-64.34v-.18s3.8,2.44,7.48,2.44,12.76-3.22,19.63-9.27c-1.6,8.87-.19,17,3.76,21.72a11,11,0,0,0,8.64,4.16c5.21,0,11.3-2.58,19.15-8.11,8.79-6.2,20-16.31,34.26-30.92-.88,9.56-.86,22.12,4.22,27.69a8.48,8.48,0,0,0,6.5,2.81,11.108,11.108,0,0,0,1.5-.1c5.25-.65,11.16-2.77,17.55-6.28a113.55,113.55,0,0,0,16.15-11,165.254,165.254,0,0,0,16.4-15.12h0A32.739,32.739,0,0,0,870,502.85a25.85,25.85,0,0,0,8.28,7.94,27.37,27.37,0,0,0,14.17,3.61,24.921,24.921,0,0,0,2.71-.1c9.18-.65,19.34-4.11,30.21-10.26a167.435,167.435,0,0,0,27.2-19.78,251.679,251.679,0,0,0,27.22-27.89,166.572,166.572,0,0,0,0-26.7.09.09,0,0,0-.07,0c-.52,0-3.31,3.11-7.53,7.81-7.11,7.94-17.87,19.94-29.19,30a133.344,133.344,0,0,1-21,15.27c-6.23,3.6-11.48,5.74-14,5.74h-.43a4.64,4.64,0,0,1-3.22-2c-1.27-1.71-2.1-4.53-2.48-8.38a69.775,69.775,0,0,1,0-11.1c.47-7.34,1.64-13.81,1.64-13.85a13.11,13.11,0,0,0,4.06,3.49c2.67,1.59,7.41,3.49,14.84,3.49,5.69,0,11.69-1.74,17.84-5.17a66.059,66.059,0,0,0,16-12.94c9.84-10.76,16-23.66,16-33.64,0-5.5-1.78-9.85-5.31-12.94-3.91-3.44-9.86-5.18-17.68-5.18h-1.75c-22.57.71-41.63,10.59-56.64,29.37a122.159,122.159,0,0,0-14.83,24.24A176.892,176.892,0,0,0,867.66,465a171.6,171.6,0,0,1-18.73,18.28c-5.74,4.86-10,8-10,8a43.322,43.322,0,0,1,1.64-7.66,113.374,113.374,0,0,1,9-21.51,567,567,0,0,0,42.32-55c10.08-15.16,17.91-29.27,23.3-42,4.74-11.17,7.58-21.23,8.45-29.88.75-7.57,0-13.88-2.24-18.76-2.72-5.93-7.58-9.34-13.33-9.34h-.57c-6.56.34-13.29,2.83-20,7.39-6.08,4.15-12.29,10.1-18.43,17.7-10.36,12.8-20.74,30.43-30.86,52.4-9,19.56-16.14,39-20.53,51.87-4.67,13.66-7.35,23.07-7.46,23.47h0c-.68.67-17.09,16.65-37.37,36.15,2.2-12,7.07-24.25,13.82-41.2,4.47-11.23,10-25.22,16.17-42.62-1.2,0-2.38-.06-3.51-.06-8.39,0-15,1.09-20.1,3.31a31,31,0,0,0-9.38,6.51c-.66.62-1.29,1.2-1.93,1.75-2.76,2.33-7.64,14.83-11.25,24.9-3.75,10.46-6.89,20.41-7.24,21.51h0c-.07.07-7.09,7.07-16,14.38-3.12,2.55-7.47,4.34-10.57,4.34-1.9,0-3.2-.67-3.74-1.94-.86-2,.08-5.32,2.79-9.88,3.23-5.42,8.9-12.45,16.87-20.87A271.553,271.553,0,0,0,762,428.1a297.265,297.265,0,0,0,16.26-25.34,232.131,232.131,0,0,0,12.67-25.23h0a12.18,12.18,0,0,0,2,4.73,10.53,10.53,0,0,0,3.6,3.24,13.12,13.12,0,0,0,6.37,1.48,22.41,22.41,0,0,0,8.56-1.91,32.05,32.05,0,0,0,8.49-5.38,27.36,27.36,0,0,0,9.65-19,10.691,10.691,0,0,0-2.72-8.14c-2.28-2.4-5.85-3.73-10.05-3.73a23.7,23.7,0,0,0-11.1,3,25.179,25.179,0,0,0-9.41,8.92,81.374,81.374,0,0,0,1.7-16.36c-.14-4.59-1.08-7.88-2.89-10.05s-4.55-3.27-8.29-3.27a15.176,15.176,0,0,0-2,.09,62.771,62.771,0,0,0-26.43,8.43,71,71,0,0,0-17.68,14.94,79.7,79.7,0,0,0-13,20.6L690.58,479.38l-19.72,16.85c.29-.71,28.55-71,27.85-72.24-.13-.22-1.37-.37-3.15-.37a61.56,61.56,0,0,0-19.83,3.65,35.63,35.63,0,0,0-10.48,5.85,20.84,20.84,0,0,0-6.71,9.7c-6.11,19.13-20.81,57.95-21,58.34,0,0-4.83,4.35-10.46,8.61-5.2,3.93-12.22,8.62-16.09,8.62a2.66,2.66,0,0,1-2.35-1.07c-1.16-1.66-.69-5.3,1.38-10.82,3.1-8.27,6.64-17.61,10.08-26.65h0c9-23.61,17.43-45.9,17.43-47.68,0-.39-.72-.59-2.15-.59-3.3,0-10,1.09-16.69,2.71C611.37,436,606,438,604.3,439.53c-4.43,4-24.85,58.61-25.06,59.16l-12.32,11.5,23.42-70.66a22.811,22.811,0,0,0-4.87-1.87,56.58,56.58,0,0,0-15.27-1.86c-11.11,0-23.83,2.36-37.79,7A79.38,79.38,0,0,0,506,458.1a113.89,113.89,0,0,0-18.43,20.41A132.383,132.383,0,0,0,473.24,504s-1.62,3.62-35.12,31.64c12.69-22.37,21.79-40.11,27.05-52.73,4.8-11.51,6.4-18.76,4.77-21.56a2.62,2.62,0,0,0-2.45-1.31c-7.09,0-23.59,3.75-26.82,4.5h-.09a57.048,57.048,0,0,0,4.37-8.07,29.921,29.921,0,0,0,2.23-7,9.9,9.9,0,0,0-.64-6.28c-1.31-2.46-4.14-3.7-8.42-3.7-8.57,0-17.14,4.05-24.14,11.4A43.138,43.138,0,0,0,406.8,461a23.529,23.529,0,0,0-2.78,9.32,10.23,10.23,0,0,0,2.2,6.76,17.89,17.89,0,0,0,5.24,4.44,32.309,32.309,0,0,0,7.74,3.18h0c-.19.23-15.66,18.64-33.89,37A304.3,304.3,0,0,1,357,547.52c-10.16,7.87-18.1,12-23.6,12.39h-.48a5.47,5.47,0,0,1-4.55-2.22c-1.43-1.84-2.27-4.87-2.5-9a66.606,66.606,0,0,1,.62-11.85,131.933,131.933,0,0,1,2.8-14.76,20,20,0,0,0,4.84,3.9A28.71,28.71,0,0,0,349,529.92c8.25,0,16.79-3.07,24.7-8.87a61.57,61.57,0,0,0,17.61-20.37,43.439,43.439,0,0,0,5.19-16.31c.48-5.52-.58-10.24-3.13-14a18,18,0,0,0-6.68-5.56,32.1,32.1,0,0,0-15-3.32c-9.86,0-21.43,3.32-34.37,9.85a67.441,67.441,0,0,0-19.92,15.93,115.193,115.193,0,0,0-13.92,20,145.58,145.58,0,0,0-10.86,24.31,190.391,190.391,0,0,1-31.95,28.39c.4-28.72,18.87-91.2,29.9-128.53l.5-1.71a332.461,332.461,0,0,1,12-33.73c4.3-10.55,6.26-15.37,3.17-18.45a8.14,8.14,0,0,0-5.34-1.62c-12.77,0-36.59,17.38-42,23.39-1.88,2.1-6.59,10.83-13.13,22.91-4.39,8.11-9.85,18.22-15.85,28.89-11.3,20.07-24.65,42.57-31.06,53.38-2.43,4.09-3.89,6.55-3.91,6.65.09-.51,10.39-57.65,13.23-73.44.89-5,2.46-11.12,4.12-17.61,3.61-14.07,7.33-28.63,3.94-31.46a3.79,3.79,0,0,0-2.42-.63c-4.41,0-13.38,3.51-22.32,8.74a92.345,92.345,0,0,0-12.22,8.44,35.1,35.1,0,0,0-8.13,8.95c-1.5,2.66-6,10.93-12.35,22.39h0c-24.58,44.69-75.72,137.69-82.64,146-8.35,10-29.14,21.13-42.9,28.48l-1.69.91C18.71,618.77,18.31,626.3,18,632.94v.64c-.25,4.57.52,12.58,3.7,15.94A4.37,4.37,0,0,0,24.85,651m488.87-71.43h0c-1.47,6.2-5.39,14.33-10.22,21.21-5,7.1-9.83,11.34-13,11.34a3,3,0,0,1-1.5-.38,2.48,2.48,0,0,1-1.14-2.09c-.16-2.56,1.81-6.55,5.55-11.23,4.53-5.67,11.54-12.19,20.28-18.85M621.1,561.25h0c-1.56,5.52-5.7,12.76-10.82,18.88-5.29,6.33-10.43,10.1-13.75,10.1a3.57,3.57,0,0,1-1.59-.34,2.13,2.13,0,0,1-1.21-1.92c-.14-2.29,2-5.84,5.94-10,4.8-5,12.21-10.82,21.43-16.72h0m-70-106.19h.13c-14,43-18.8,57.13-18.85,57.26s-4.72,5.18-10.3,10.28c-5.08,4.7-12.08,10.3-15.94,10.3h-.08a2.36,2.36,0,0,1-2-1.39c-1.75-3.09-1.4-11.34.94-22.05,2.27-10.43,5.94-20.8,9.58-27.06,7.67-13.21,21.31-27.33,36.55-27.33M366,481.36a4,4,0,0,1,2.51.7c1.11.84,1,3.53-.23,7.37-2.76,8.47-10.41,20.36-16.6,20.49h-.32a13.68,13.68,0,0,1-9.48-3.75,14.25,14.25,0,0,1-2.92-3.74A66.841,66.841,0,0,1,354,486.57c4.55-3.31,8.9-5.21,11.92-5.21m575.67-70.49a4,4,0,0,1,2.51.7c1.11.84,1,3.53-.23,7.37-2.76,8.47-10.41,20.36-16.6,20.49H927a13.68,13.68,0,0,1-9.48-3.75,13.888,13.888,0,0,1-2.91-3.74,66.849,66.849,0,0,1,15.11-15.87c4.56-3.31,8.9-5.21,11.92-5.21M770,355.45h.11a1.51,1.51,0,0,1,1.35,1.14c1.41,3.78-2.09,16.14-8.52,30.08-7.54,16.32-17.19,30.84-26.49,39.84a467.072,467.072,0,0,1,18-48c4.75-10.51,11.3-23,15.55-23h0m128.45-22.06h.11a1.56,1.56,0,0,1,1.36,1.16c.73,1.89.28,6.12-1.28,11.93a147.283,147.283,0,0,1-7.38,20.3c-7.74,17.6-17.68,33.25-27.26,43a518.087,518.087,0,0,1,18.48-51.59c4.88-11.3,11.61-24.76,16-24.76M24.86,659.4h0a12.77,12.77,0,0,1-9.33-4.12c-2.56-2.7-4.34-6.65-5.29-11.74a45.921,45.921,0,0,1-.69-10.43v-.63c.2-3.81.45-8.56,3-13.67,2.8-5.71,7.73-10.39,15.07-14.32l1.7-.91c12.38-6.62,33.1-17.69,40.4-26.45.47-.55,2.67-3.56,11.57-18.87,5.58-9.61,13.07-22.8,22.25-39.21,16.71-29.84,35.49-64,47.92-86.59h0c6.31-11.48,10.87-19.77,12.4-22.47,2.07-3.67,5.36-7.35,10.06-11.27a101.268,101.268,0,0,1,13.36-9.24c4-2.32,17.6-9.88,26.55-9.88a11.8,11.8,0,0,1,7.79,2.58,11.49,11.49,0,0,1,3.6,5.54,18.542,18.542,0,0,1,.74,4.73,46.16,46.16,0,0,1-.78,9.06c-1,6.11-2.91,13.5-4.74,20.65-1.62,6.33-3.15,12.31-4,17-1,5.44-2.86,15.85-4.89,27.15,3.7-6.39,7.48-13,11.05-19.33,6-10.6,11.4-20.66,15.78-28.74h0c8.34-15.41,11.82-21.78,14.26-24.5,3.62-4.05,11.87-10.42,20-15.49,11.46-7.11,20.94-10.71,28.18-10.71A16.36,16.36,0,0,1,311.58,371l.31.25.28.29a13.17,13.17,0,0,1,3.74,7.19,17.78,17.78,0,0,1-.3,7c-.8,3.61-2.47,7.71-4.78,13.38a326.218,326.218,0,0,0-11.75,32.95l-.51,1.71c-5.42,18.34-12.84,43.46-18.84,67.18-4,15.93-6.94,29.32-8.7,40.06a178.5,178.5,0,0,0,14.15-13.78,160.746,160.746,0,0,1,10.93-24.1,124.188,124.188,0,0,1,15-21.44,76.049,76.049,0,0,1,22.43-17.87c14.12-7.12,27-10.74,38.15-10.74a40.431,40.431,0,0,1,18.89,4.27,29.68,29.68,0,0,1,6.7,4.74,40.078,40.078,0,0,1,2.07-4.83,51.451,51.451,0,0,1,8.59-12.11c8.6-9,19.33-14,30.22-14a21.71,21.71,0,0,1,8.7,1.63,14.7,14.7,0,0,1,7.13,6.51,18,18,0,0,1,1.51,11.59c-.12.72-.27,1.45-.46,2.21a82.415,82.415,0,0,1,12.49-1.4A11.411,11.411,0,0,1,472.9,453a10.92,10.92,0,0,1,4.29,4.16c2.58,4.43,1.79,9.86,1,13.55a92.108,92.108,0,0,1-4.78,14.36c2.05-3.52,4.5-7.41,7.36-11.43a122.359,122.359,0,0,1,19.81-21.91,87.869,87.869,0,0,1,29.2-16.87c14.82-4.94,28.43-7.44,40.45-7.44a64.729,64.729,0,0,1,17.55,2.18,30.569,30.569,0,0,1,6.84,2.7l3.21,1.89c.29-.32.58-.6.86-.86,1.71-1.55,4.13-2.85,7.84-4.21a95.591,95.591,0,0,1,10.27-3c5.87-1.43,13.85-3,18.66-3a14.061,14.061,0,0,1,3.84.45,8.86,8.86,0,0,1,6.7,8.53c0,1.64-.37,3.14-1.92,7.62-.9,2.61-2.19,6.19-3.95,10.95-3.25,8.78-7.55,20.1-12.1,32.09h0v.07c-2.81,7.38-5.68,15-8.33,22,.75-.54,1.56-1.13,2.42-1.78,3.49-2.64,6.64-5.3,8.41-6.84,3.06-8.12,14.85-39.62,20.07-56a29.151,29.151,0,0,1,9.33-13.57,43.711,43.711,0,0,1,12.93-7.29,69.778,69.778,0,0,1,22.76-4.17,26.9,26.9,0,0,1,3.19.16,11.617,11.617,0,0,1,2,.38,9,9,0,0,1,3,1.5l16-45v-.23a87.2,87.2,0,0,1,14.46-23,79.59,79.59,0,0,1,19.79-16.69A70.87,70.87,0,0,1,784,322.71h0c1-.09,1.89-.13,2.78-.13a21.72,21.72,0,0,1,7.94,1.39,16.66,16.66,0,0,1,6.79,4.9c2.79,3.34,4.35,7.74,4.75,13.42a31.289,31.289,0,0,1,10.51-1.9c6.52,0,12.25,2.26,16.14,6.35a19.11,19.11,0,0,1,5,14.35,32.6,32.6,0,0,1-1.3,7.61c8.52-16.9,17.21-30.87,25.93-41.65,6.66-8.23,13.47-14.75,20.24-19.36,8-5.44,16.15-8.41,24.27-8.83h1.01c9,0,16.88,5.32,21,14.23,2.87,6.26,3.86,14,3,23.09-1,9.5-4,20.38-9.08,32.33A225.641,225.641,0,0,1,911.69,391l.65-.34a80.29,80.29,0,0,1,34.76-8.85h2c9.92,0,17.73,2.44,23.22,7.26,5.34,4.69,8.16,11.34,8.16,19.25a42.578,42.578,0,0,1-2.26,13.06,8.272,8.272,0,0,1,1.52-.13,8.51,8.51,0,0,1,6.81,3.42l1.4,1.89.22,2.35a172.345,172.345,0,0,1,0,28.24l-.23,2.53-1.59,2a261.432,261.432,0,0,1-28.22,28.92,175.366,175.366,0,0,1-28.6,20.77c-11.95,6.77-23.31,10.59-33.75,11.33-1.1.08-2.22.12-3.3.12A35.62,35.62,0,0,1,874,518a34,34,0,0,1-11-10.48c-.34-.49-.65-1-1-1.48-2.37,2.16-5.11,4.53-8.1,6.94a122.692,122.692,0,0,1-17.36,11.83c-7.32,4-14.24,6.47-20.55,7.26a19.91,19.91,0,0,1-2.54.16,16.74,16.74,0,0,1-12.69-5.55c-3-3.29-5-7.78-6-13.66a200.01,200.01,0,0,1-21.43,18.09,65.7,65.7,0,0,1-12.13,7,30.131,30.131,0,0,1-11.86,2.64,19.38,19.38,0,0,1-15.08-7.17,27.519,27.519,0,0,1-5.59-12.22c-2.76,1.15-7.35,2.78-11.36,2.78a16.009,16.009,0,0,1-1.7-.09c-1.84,6.75-4.51,16.43-7.2,25.84-2.49,8.72-4.58,15.71-6.19,20.78-1,3.12-1.8,5.49-2.48,7.26-1.13,3-2.29,5.57-5.06,7.17-1.44.83-3.18,1.35-6.64,2-2.18.4-4.92.82-7.93,1.21a149.313,149.313,0,0,1-17.07,1.39,25.6,25.6,0,0,1-3.72-.22,9.27,9.27,0,0,1-7.06-4.5c-1.84-3.18-1.12-6.33-.41-9.37.44-1.92,1.11-4.5,2-7.88v-.12q-1.49,2.61-3.15,5.26a109.251,109.251,0,0,1-24,27.49,75.13,75.13,0,0,1-37.76,16.29,35.087,35.087,0,0,1-4.42.28,28.4,28.4,0,0,1-10.08-1.76,23.64,23.64,0,0,1-8.56-5.5c-5-5-7.59-12-7.56-20.26A29.56,29.56,0,0,1,561.08,577a43,43,0,0,1,9.52-12.89,88.063,88.063,0,0,1,6.58-5.86,20.779,20.779,0,0,1-6.54-4.31,23.819,23.819,0,0,1-4.5-6.14l-3.5,3.22c-.67,2.33-1.83,6.12-3.51,10.82a186.1,186.1,0,0,1-13.29,29.07c-7.24,12.64-15.48,22.86-24.48,30.39a69.719,69.719,0,0,1-18.43,11.24,60.09,60.09,0,0,1-20.35,4.41h-.33a38.421,38.421,0,0,1-13.46-2.2,25.15,25.15,0,0,1-10.69-7.47,24.52,24.52,0,0,1-5.56-15.36,34.08,34.08,0,0,1,2.81-13.66,41,41,0,0,1,7.23-11c4.57-5.11,10.44-9.69,16.76-14.37a25.57,25.57,0,0,1-17.22-8.16,27.35,27.35,0,0,1-5.4-8.86,190.387,190.387,0,0,1-18.51,14.8,94.078,94.078,0,0,1-12.47,7.48c-4.53,2.19-8.27,3.25-11.44,3.25h-1.13a28.211,28.211,0,0,1-7.75-1.63,20.69,20.69,0,0,1-6.8-4.08,20.39,20.39,0,0,1-5.55-8.64,30.549,30.549,0,0,1-1.44-10.22,28.251,28.251,0,0,1,.64-5.34c-1,1-2.13,1.95-3.21,2.93-12.06,10.86-23.29,19.56-33.39,25.84a103.691,103.691,0,0,1-18.29,9.24,49.09,49.09,0,0,1-16.79,3.37h-1.61a51.58,51.58,0,0,1-16.47-3.26,32.52,32.52,0,0,1-12.76-8.81,29.773,29.773,0,0,1-3.61-5.17c-3.51,3.09-7.67,6.62-12.12,10.14a165.753,165.753,0,0,1-20.09,13.89c-8.38,4.78-15.3,7.1-21.14,7.1a14.053,14.053,0,0,1-1.72-.07,22.78,22.78,0,0,1-9.53-2.83,20.9,20.9,0,0,1-7.19-6.91c-3.14-4.85-4.8-11.25-5.09-19.56-.25-7.35.56-16.18,2.47-27,1.42-8,3.48-17.15,6.15-27.3-13.57,23-23.93,40.32-32,53.28-7.36,11.85-12.65,19.78-16.62,25a50,50,0,0,1-5.9,6.68c-2.85,2.58-5.66,3.88-8.59,4h-1.36a14,14,0,0,1-11.35-5.2c-2.71-3.33-4.3-8-5-14.81a126.874,126.874,0,0,1,.06-21c.8-11.59,2.69-26.44,5.64-44.39-17.42,33.31-31.36,59.74-47.9,81.36a165.409,165.409,0,0,1-28.51,29.52,145.177,145.177,0,0,1-36.62,21.11l-.18.07-.18.06a13.59,13.59,0,0,1-4.51.63Zm310.2-123.61c-.11.7-.21,1.42-.3,2.15a59,59,0,0,0-.56,10.32,21,21,0,0,0,.36,2.93c2.62-.75,7.94-3.09,17.24-10.3,1.27-1,2.56-2,3.9-3.12a42.634,42.634,0,0,1-6.74.54,38.539,38.539,0,0,1-13.9-2.52Zm203.1-67.68c-.94.65-1.89,1.37-2.83,2.15a61.94,61.94,0,0,0-13.53,16.36c-3.17,5.47-6.56,15.13-8.63,24.63a90.243,90.243,0,0,0-1.57,9.32c1.35-1.08,2.95-2.44,4.82-4.15,3.64-3.33,6.92-6.73,8.6-8.5,1.37-4.06,5.34-15.92,13.14-39.81ZM350.3,501.46l.6.06a18.37,18.37,0,0,0,4.47-5l.45-.67a57.368,57.368,0,0,0-5.52,5.61Zm54.3-14.4c-.1.7-.21,1.4-.34,2.11l1.28-1.45Zm505.58-20.25v.66a61.377,61.377,0,0,0,0,9.75c.08.76.17,1.4.26,1.93a62.546,62.546,0,0,0,7.37-3.71,118.344,118.344,0,0,0,11.49-7.63,38.753,38.753,0,0,1-7,.65,42.512,42.512,0,0,1-12.12-1.65Zm-167.77-2.05c-1.5,1.63-2.85,3.15-4.07,4.55,1.57-1.44,2.84-2.65,3.74-3.51ZM799.34,404c1.22,0,2.49,0,3.79.07l11.44.38-3.81,10.79c-6.19,17.56-11.79,31.63-16.29,42.94q-1.89,4.74-3.57,9c5.52-5.34,9.71-9.41,11.9-11.55,1.08-3.63,3.47-11.52,7-21.72,4.46-13.05,11.69-32.78,20.85-52.66l1-2.1a38.883,38.883,0,0,1-6.13,6.82,40.131,40.131,0,0,1-10.77,6.81,30.719,30.719,0,0,1-11.83,2.58,21.56,21.56,0,0,1-9.9-2.24c-1.71,3.42-3.8,7.42-6.27,11.81a77.761,77.761,0,0,1,12.59-.93ZM926,431l.6.06a18.341,18.341,0,0,0,4.48-5l.44-.67A58.532,58.532,0,0,0,926,431Z" fill="#f58b8b"/>
    </g>
  </g>
</svg>
