<svg id="pdf_merge" data-name="pdf merge" xmlns="http://www.w3.org/2000/svg" width="128.472" height="128.429" viewBox="0 0 128.472 128.429">
  <path id="Path_1" data-name="Path 1" d="M64.214,0A64.214,64.214,0,1,1,0,64.214,64.21,64.21,0,0,1,64.214,0Z" fill="#86cd82"/>
  <path id="Path_2" data-name="Path 2" d="M210.3,164.489a64.21,64.21,0,0,1-63.913,58.094,61.623,61.623,0,0,1-6.848-.376l-29.853-28.926,71.478-67.6,29.48,33.936Z" transform="translate(-82.175 -94.154)" fill="#72a276"/>
  <g id="PDFFile2" transform="translate(51.321 21.466)">
    <path id="Path_3" data-name="Path 3" d="M132.6,97.6h37.893l9.968,9.987v51.448H132.6Z" transform="translate(-132.6 -97.6)" fill="#f8f8f8"/>
    <path id="Path_4" data-name="Path 4" d="M132.6,97.6h37.893l9.968,9.987v4.79H132.6Z" transform="translate(-132.6 -97.6)" fill="#ff8c8a"/>
    <path id="Path_5" data-name="Path 5" d="M328,97.6v9.987h9.968Z" transform="translate(-290.107 -97.6)" fill="#ebecec"/>
    <path id="Path_6" data-name="Path 6" d="M150.2,122.488v-8.668h2.812a9.176,9.176,0,0,1,2.075.136,2.2,2.2,0,0,1,1.241.853,2.726,2.726,0,0,1,.5,1.687,2.842,2.842,0,0,1-.291,1.338,2.454,2.454,0,0,1-.737.853,2.247,2.247,0,0,1-.911.407,10.8,10.8,0,0,1-1.823.116h-1.144v3.277Zm1.765-7.214v2.463h.95a4.247,4.247,0,0,0,1.377-.136,1.193,1.193,0,0,0,.543-.427,1.161,1.161,0,0,0,.194-.679,1.144,1.144,0,0,0-.271-.776,1.259,1.259,0,0,0-.7-.388,8.52,8.52,0,0,0-1.26-.058Zm6.322-1.474h3.2a5.993,5.993,0,0,1,1.648.175,2.82,2.82,0,0,1,1.3.8,3.807,3.807,0,0,1,.834,1.416,6.322,6.322,0,0,1,.291,2.056,5.765,5.765,0,0,1-.271,1.842,3.658,3.658,0,0,1-.931,1.532,3.371,3.371,0,0,1-1.222.7,5.41,5.41,0,0,1-1.551.194h-3.3Zm1.765,1.474v5.74h1.3a4.552,4.552,0,0,0,1.047-.078,1.505,1.505,0,0,0,.7-.368,1.779,1.779,0,0,0,.465-.834,5.718,5.718,0,0,0,.175-1.59,5.325,5.325,0,0,0-.175-1.551,2.018,2.018,0,0,0-.485-.834,1.8,1.8,0,0,0-.814-.407,7.81,7.81,0,0,0-1.435-.078Zm6.981,7.214v-8.668h5.953v1.474h-4.208v2.036H172.4V118.8h-3.626v3.685Z" transform="translate(-146.787 -110.658)" fill="#f8f8f8"/>
    <path id="Path_7" data-name="Path 7" d="M188.289,219.762c1.067.019,2.7.019,3.51.737l.679.717a1.537,1.537,0,0,0-.116-1.978c-2-2.017-9.328-.853-11.926-.582-.291.019-.64-.291-.853-.446a19.1,19.1,0,0,1-3.258-2.87l-1.513-1.9a24.509,24.509,0,0,1-2.851-5.314c-.233-.562-.175-.485-.039-1.086.078-.368.155-.756.213-1.144a22.21,22.21,0,0,0,.407-4.964c-.33-.058-.252.116-.33.388l-1.028,3.336c-.039.1-.058.175-.1.271a.36.36,0,0,0-.039.136l-.078.116a12.168,12.168,0,0,1-.465-1.842,24.751,24.751,0,0,1-.562-6.206c.078-1.3.543-3.374,1.61-1.571a11,11,0,0,1,.756,1.513l.6,1.668a4.6,4.6,0,0,0,.058-2.056,3.147,3.147,0,0,0-.737-1.532c-.155-.078-.213-.194-.388-.31-.136-.1-.271-.155-.427-.252a2.673,2.673,0,0,0-1.978-.136l-.349.175-.233.175c-.058.058,0,.019-.1.058a5.384,5.384,0,0,0-.368.524,4.68,4.68,0,0,0-.446,2.191,34.778,34.778,0,0,0,1.765,10.549c.1.291-.019.407-.116.679-.407,1.008-.892,2.056-1.319,3.045-.989,2.308-3.452,7.117-4.693,9.347-.834,1.493-1.59,3.083-2.443,4.557a25.433,25.433,0,0,1-1.416,2.133,34.838,34.838,0,0,1-2.4,2.87c-.31.252-.562.582-.873.853-.175.155-.271.291-.465.446-.155.136-.291.272-.465.407-.194.155-.737.737-1.047.524-.6-.621,2.385-4.46,3.1-5.158l2.463-2.54a13.993,13.993,0,0,0-3.064,1.668c-1.222.873-3.956,3.665-4.092,5.275-.136,1.668,2.463,2.6,4.5,1.261a3.732,3.732,0,0,0,.659-.524,23.758,23.758,0,0,0,2.56-3.3c1.125-1.668,2.133-3.316,3.161-5.061.155-.271.388-.31.679-.446a49.187,49.187,0,0,1,14.835-3.937c.388-.039.5.116.814.291.271.155.485.271.756.427a29.068,29.068,0,0,0,4.926,2.075c2.211.64,6.419,1.454,6.632-1.474l-.233.194c-1.047.814-3.82.175-4.887-.136a31.4,31.4,0,0,1-4.5-1.648C184.6,219.821,186.544,219.743,188.289,219.762Zm-14,0a47,47,0,0,0-7.99,2.443c-.427.194-1.028.524-1.4.64a4.648,4.648,0,0,1,.407-.737c.814-1.357,3.685-6.768,4.228-7.99.233-.524.446-1.008.679-1.551.213-.524.388-1.086.621-1.61.194.272.465.931.64,1.241a17.038,17.038,0,0,0,2.327,3.3c.291.349.621.679.911.989l1.978,1.745c.31.252.8.543,1.067.8Z" transform="translate(-148.942 -175.567)" fill="#fa7876"/>
  </g>
  <g id="PDFFile" transform="translate(27.391 37.56)">
    <path id="Path_50" data-name="Path 50" d="M132.6,97.6h37.893l9.968,9.987v51.448H132.6Z" transform="translate(-132.6 -97.6)" fill="#f8f8f8"/>
    <path id="Path_51" data-name="Path 51" d="M132.6,97.6h37.893l9.968,9.987v4.79H132.6Z" transform="translate(-132.6 -97.6)" fill="#ff8c8a"/>
    <path id="Path_52" data-name="Path 52" d="M328,97.6v9.987h9.968Z" transform="translate(-290.107 -97.6)" fill="#ebecec"/>
    <path id="Path_53" data-name="Path 53" d="M150.2,122.488v-8.668h2.812a9.176,9.176,0,0,1,2.075.136,2.2,2.2,0,0,1,1.241.853,2.726,2.726,0,0,1,.5,1.687,2.841,2.841,0,0,1-.291,1.338,2.454,2.454,0,0,1-.737.853,2.247,2.247,0,0,1-.911.407,10.8,10.8,0,0,1-1.823.116h-1.144v3.277Zm1.765-7.214v2.463h.95a4.247,4.247,0,0,0,1.377-.136,1.193,1.193,0,0,0,.543-.427,1.161,1.161,0,0,0,.194-.679,1.144,1.144,0,0,0-.271-.776,1.259,1.259,0,0,0-.7-.388,8.52,8.52,0,0,0-1.26-.058Zm6.322-1.474h3.2a5.993,5.993,0,0,1,1.648.175,2.82,2.82,0,0,1,1.3.8,3.808,3.808,0,0,1,.834,1.416,6.323,6.323,0,0,1,.291,2.056,5.765,5.765,0,0,1-.271,1.842,3.658,3.658,0,0,1-.931,1.532,3.371,3.371,0,0,1-1.222.7,5.41,5.41,0,0,1-1.551.194h-3.3Zm1.765,1.474v5.74h1.3a4.552,4.552,0,0,0,1.047-.078,1.505,1.505,0,0,0,.7-.368,1.78,1.78,0,0,0,.465-.834,5.719,5.719,0,0,0,.175-1.59,5.325,5.325,0,0,0-.175-1.551,2.018,2.018,0,0,0-.485-.834,1.8,1.8,0,0,0-.814-.407,7.81,7.81,0,0,0-1.435-.078Zm6.981,7.214v-8.668h5.953v1.474h-4.208v2.036H172.4V118.8h-3.626v3.685Z" transform="translate(-146.787 -110.658)" fill="#f8f8f8"/>
    <path id="Path_54" data-name="Path 54" d="M188.289,219.762c1.067.019,2.7.019,3.51.737l.679.717a1.537,1.537,0,0,0-.116-1.978c-2-2.017-9.328-.853-11.926-.582-.291.019-.64-.291-.853-.446a19.1,19.1,0,0,1-3.258-2.87l-1.513-1.9a24.509,24.509,0,0,1-2.851-5.314c-.233-.562-.175-.485-.039-1.086.078-.368.155-.756.213-1.144a22.21,22.21,0,0,0,.407-4.964c-.33-.058-.252.116-.33.388l-1.028,3.336c-.039.1-.058.175-.1.271a.359.359,0,0,0-.039.136l-.078.116a12.168,12.168,0,0,1-.465-1.842,24.751,24.751,0,0,1-.562-6.206c.078-1.3.543-3.374,1.61-1.571a11,11,0,0,1,.756,1.513l.6,1.668a4.6,4.6,0,0,0,.058-2.056,3.147,3.147,0,0,0-.737-1.532c-.155-.078-.213-.194-.388-.31-.136-.1-.271-.155-.427-.252a2.673,2.673,0,0,0-1.978-.136l-.349.175-.233.175c-.058.058,0,.019-.1.058a5.38,5.38,0,0,0-.368.524,4.68,4.68,0,0,0-.446,2.191,34.778,34.778,0,0,0,1.765,10.549c.1.291-.019.407-.116.679-.407,1.008-.892,2.056-1.319,3.045-.989,2.308-3.452,7.117-4.693,9.347-.834,1.493-1.59,3.083-2.443,4.557a25.433,25.433,0,0,1-1.416,2.133,34.838,34.838,0,0,1-2.4,2.87c-.31.252-.562.582-.873.853-.175.155-.271.291-.465.446-.155.136-.291.272-.465.407-.194.155-.737.737-1.047.524-.6-.621,2.385-4.46,3.1-5.158l2.463-2.54a13.992,13.992,0,0,0-3.064,1.668c-1.222.873-3.956,3.665-4.092,5.275-.136,1.668,2.463,2.6,4.5,1.261a3.732,3.732,0,0,0,.659-.524,23.756,23.756,0,0,0,2.56-3.3c1.125-1.668,2.133-3.316,3.161-5.061.155-.271.388-.31.679-.446a49.187,49.187,0,0,1,14.835-3.937c.388-.039.5.116.814.291.271.155.485.271.756.427a29.068,29.068,0,0,0,4.926,2.075c2.211.64,6.419,1.454,6.632-1.474l-.233.194c-1.047.815-3.82.175-4.887-.136a31.4,31.4,0,0,1-4.5-1.648C184.6,219.821,186.544,219.743,188.289,219.762Zm-14,0a47,47,0,0,0-7.99,2.443c-.427.194-1.028.524-1.4.64a4.648,4.648,0,0,1,.407-.737c.814-1.357,3.685-6.768,4.228-7.99.233-.524.446-1.008.679-1.551.213-.524.388-1.086.621-1.61.194.272.465.931.64,1.241a17.037,17.037,0,0,0,2.327,3.3c.291.349.621.679.911.989l1.978,1.745c.31.252.8.543,1.067.8Z" transform="translate(-148.942 -175.567)" fill="#fa7876"/>
  </g>
  <g id="Merge" transform="translate(70.804 76.716)">
    <circle id="Ellipse_7" data-name="Ellipse 7" cx="16.707" cy="16.707" r="16.707" transform="translate(0 0)" fill="#6bc9ef"/>
    <path id="Intersection_1" data-name="Intersection 1" d="M0,15.338.846,6.98l8.479-.047L8.719,0,16.87,8.211l-.205-1.024L24.1,15.261a16.724,16.724,0,0,1-13.984,10.8Z" transform="translate(8.272 7.264)" fill="#59b8de"/>
    <path id="Union_1" data-name="Union 1" d="M15.107,15.433S15.1,10.6,15.1,9.059c0-.266-.152-.264-.418-.257H2.2c-.266-.007-.413-.009-.419.257,0,1.543-.008,6.374-.008,6.374H0L.008,7.757a.734.734,0,0,1,.714-.732H7.554V5.531h0V4.5H5.522a.466.466,0,0,1-.361-.76L8.081.17A.467.467,0,0,1,8.8.17L11.72,3.742a.466.466,0,0,1-.36.76H9.331V7.025h6.831a.734.734,0,0,1,.714.732l.008,7.676Z" transform="translate(8.266 7.181)" fill="#f8f8f8"/>
  </g>
</svg>
