<svg id="pdf_add" data-name="pdf add" xmlns="http://www.w3.org/2000/svg" width="206.553" height="206.553" viewBox="0 0 206.553 206.553">
  <path id="Path_1" data-name="Path 1" d="M103.277,0A103.277,103.277,0,1,1,0,103.277,103.269,103.269,0,0,1,103.277,0Z" fill="#86cd82"/>
  <path id="Path_2" data-name="Path 2" d="M285.175,202.01a103.269,103.269,0,0,1-102.793,93.433,99.113,99.113,0,0,1-11.014-.605L132.6,256.069,232.206,149Z" transform="translate(-79.106 -88.89)" fill="#72a276"/>
  <path id="Path_3" data-name="Path 3" d="M132.6,97.6h78.829l20.736,20.776V225.4H132.6Z" transform="translate(-79.106 -58.226)" fill="#f8f8f8"/>
  <path id="Path_4" data-name="Path 4" d="M132.6,97.6h78.829l20.736,20.776v9.965H132.6Z" transform="translate(-79.106 -58.226)" fill="#ff8c8a"/>
  <path id="Path_5" data-name="Path 5" d="M328,97.6v20.776h20.736Z" transform="translate(-195.677 -58.226)" fill="#ebecec"/>
  <path id="Path_6" data-name="Path 6" d="M150.2,131.873V113.84h5.85a19.091,19.091,0,0,1,4.317.282,4.574,4.574,0,0,1,2.582,1.775,5.672,5.672,0,0,1,1.049,3.51,5.911,5.911,0,0,1-.605,2.784,5.1,5.1,0,0,1-1.533,1.775,4.674,4.674,0,0,1-1.9.847,22.466,22.466,0,0,1-3.792.242h-2.38v6.818Zm3.671-15.007v5.123h1.977a8.835,8.835,0,0,0,2.864-.282,2.481,2.481,0,0,0,1.13-.888,2.415,2.415,0,0,0,.4-1.412,2.38,2.38,0,0,0-.565-1.614,2.62,2.62,0,0,0-1.452-.807,17.726,17.726,0,0,0-2.622-.121Zm13.152-3.066h6.657a12.469,12.469,0,0,1,3.429.363,5.866,5.866,0,0,1,2.7,1.654,7.92,7.92,0,0,1,1.735,2.945,13.152,13.152,0,0,1,.605,4.276,11.992,11.992,0,0,1-.565,3.833,7.611,7.611,0,0,1-1.936,3.187,7.014,7.014,0,0,1-2.542,1.452,11.256,11.256,0,0,1-3.227.4h-6.858Zm3.671,3.066v11.941h2.7a9.471,9.471,0,0,0,2.178-.161,3.131,3.131,0,0,0,1.452-.766,3.7,3.7,0,0,0,.968-1.735,11.9,11.9,0,0,0,.363-3.308,11.079,11.079,0,0,0-.363-3.227,4.2,4.2,0,0,0-1.009-1.735,3.738,3.738,0,0,0-1.694-.847,16.248,16.248,0,0,0-2.985-.161Zm14.523,15.007V113.84H197.6v3.066h-8.754v4.236h7.544v3.066h-7.544v7.665Z" transform="translate(-89.606 -67.89)" fill="#f8f8f8"/>
  <path id="Path_7" data-name="Path 7" d="M226.55,247.244c2.219.04,5.608.04,7.3,1.533l1.412,1.493a3.2,3.2,0,0,0-.242-4.115c-4.155-4.2-19.4-1.775-24.811-1.21-.605.04-1.331-.605-1.775-.928a39.721,39.721,0,0,1-6.778-5.971l-3.147-3.954a50.986,50.986,0,0,1-5.93-11.054c-.484-1.17-.363-1.009-.081-2.259.161-.767.323-1.573.444-2.38a46.2,46.2,0,0,0,.847-10.328c-.686-.121-.524.242-.686.807l-2.138,6.939c-.081.2-.121.363-.2.565a.748.748,0,0,0-.081.282l-.161.242a25.317,25.317,0,0,1-.968-3.833,51.49,51.49,0,0,1-1.17-12.91c.161-2.7,1.13-7.02,3.348-3.268a22.894,22.894,0,0,1,1.573,3.147l1.251,3.469a9.559,9.559,0,0,0,.121-4.276,6.546,6.546,0,0,0-1.533-3.187c-.323-.161-.444-.4-.807-.645-.282-.2-.565-.323-.888-.524-1.815-.565-2.138-.767-4.115-.282l-.726.363-.484.363c-.121.121,0,.04-.2.121a11.2,11.2,0,0,0-.767,1.089,9.736,9.736,0,0,0-.928,4.559c-.2,6.737,1.614,15.613,3.671,21.946.2.605-.04.847-.242,1.412-.847,2.1-1.856,4.276-2.743,6.334-2.057,4.8-7.181,14.806-9.763,19.445-1.735,3.106-3.308,6.414-5.083,9.48a52.916,52.916,0,0,1-2.945,4.438,72.491,72.491,0,0,1-5,5.971c-.645.524-1.17,1.21-1.815,1.775-.363.323-.565.605-.968.928-.323.282-.605.565-.968.847-.4.323-1.533,1.533-2.178,1.089-1.251-1.291,4.962-9.279,6.455-10.731l5.123-5.285a29.1,29.1,0,0,0-6.374,3.469c-2.542,1.815-8.23,7.625-8.512,10.973-.282,3.469,5.123,5.406,9.359,2.622a7.76,7.76,0,0,0,1.372-1.089,49.422,49.422,0,0,0,5.325-6.858c2.34-3.469,4.438-6.9,6.576-10.529.323-.565.807-.645,1.412-.928,8.795-4.317,20.9-7.02,30.862-8.19.807-.081,1.049.242,1.694.605.565.323,1.009.565,1.573.888a60.47,60.47,0,0,0,10.247,4.317c4.6,1.331,13.353,3.026,13.8-3.066l-.484.4c-2.178,1.694-7.947.363-10.166-.282-1.815-.524-8.028-2.542-9.359-3.429C218.885,247.365,222.919,247.2,226.55,247.244Zm-29.127,0a97.763,97.763,0,0,0-16.621,5.083c-.888.4-2.138,1.089-2.9,1.331a9.665,9.665,0,0,1,.847-1.533c1.694-2.824,7.665-14.08,8.795-16.621.484-1.089.928-2.1,1.412-3.227.444-1.089.807-2.259,1.291-3.348.4.565.968,1.936,1.331,2.582a35.441,35.441,0,0,0,4.841,6.858c.605.726,1.291,1.412,1.9,2.057l4.115,3.631c.645.524,1.654,1.13,2.219,1.654Z" transform="translate(-91.201 -115.929)" fill="#fa7876"/>
  <circle id="Ellipse_6" data-name="Ellipse 6" cx="16.691" cy="16.691" r="16.691" transform="translate(132.323 144.515)" fill="#ff8c8a"/>
  <g id="Group_4" data-name="Group 4" transform="translate(138.98 151.172)">
    <path id="Path_43" data-name="Path 43" d="M313.671,345.05v3.207H293.6V345.05Z" transform="translate(-293.601 -336.622)" fill="#fff"/>
    <path id="Path_44" data-name="Path 44" d="M324.278,314.4h3.2v20.07h-3.2Z" transform="translate(-315.843 -314.396)" fill="#fff"/>
  </g>
</svg>
